
<svg viewBox="0 0 24 24" xmlns="http://www.w3.org/2000/svg" xmlns:xlink="http://www.w3.org/1999/xlink" aria-hidden="true" role="img" class="iconify iconify--noto" preserveAspectRatio="xMidYMid meet"><path d="M5.837 20.728c0 -0.806 1.127 -3.654 1.127 -3.654 1.086 -0.336 8.925 -0.051 10.119 -0.051 0 0 1.08 2.312 1.08 3.705S14.848 23.25 12.011 23.25s-6.174 -1.129 -6.174 -2.522" fill="#8b5738"/><path cx="64.06" cy="93.5" rx="27.05" ry="11.75" fill="#ffb17a" d="M17.083 17.531a5.072 2.203 0 0 1 -5.072 2.203 5.072 2.203 0 0 1 -5.072 -2.203 5.072 2.203 0 0 1 10.144 0"/><g><path d="M7.251 19.903c0.566 0.323 1.462 0.298 2.158 0.424 0.885 0.161 1.386 0.836 3.092 0.806 0.609 -0.011 2.031 -0.081 1.952 -0.079 -0.049 -0.099 -0.326 -0.195 -0.866 -0.279 -0.495 -0.079 -0.851 -0.071 -1.425 -0.071 -0.439 0 -1.041 -0.131 -1.648 -0.465 -0.277 -0.152 -0.709 -0.321 -1.131 -0.407 -0.649 -0.133 -1.101 0.007 -2.006 -0.422 -0.433 -0.204 -0.784 -0.628 -0.866 -1.121l-0.214 0.615c0.281 0.516 0.538 0.763 0.954 0.999" fill="#cc8552"/><path d="M16.582 19.399c-1.451 0.922 -2.677 0.819 -2.677 0.819 -0.103 0.068 0.742 0.249 1.371 0.144 1.234 -0.206 1.984 -0.825 2.471 -1.654 -0.068 -0.21 -0.216 -0.608 -0.216 -0.608 -0.141 0.339 -0.304 0.887 -0.949 1.297" fill="#cc8552"/><path d="M13.971 22.016c-0.802 0.146 -1.571 -0.103 -2.361 -0.289 -1.082 -0.253 -3.114 -0.217 -3.114 -0.217 -0.122 0.06 0.958 0.452 1.483 0.497 0.478 0.041 0.984 0 1.438 0.186 0.639 0.261 1.258 0.392 1.877 0.392 1.176 0 2.711 -0.709 3.077 -1.629 0 0 -0.671 0.394 -1.193 0.658 -0.379 0.193 -0.788 0.328 -1.208 0.403" fill="#a86d44"/><path d="M6.716 20.902c0.159 0.255 0.323 0.491 0.536 0.703 0.362 0.36 0.819 0.568 1.114 0.516 0 0 -1.042 -0.842 -0.932 -1.061 0.056 -0.112 2.22 0.066 2.22 0.066s-0.656 -0.345 -1.296 -0.469c-0.414 -0.081 -1.172 0.081 -1.862 -0.405 -0.381 -0.268 -0.439 -0.591 -0.439 -0.591s-0.137 0.467 -0.165 0.645c0.399 0.418 0.771 0.512 0.823 0.596" fill="#a86d44"/><path d="M17.681 19.976c-0.379 0.339 -0.977 1.026 -0.977 1.38 0 0 0.671 -0.651 1.123 -0.949 0.112 -0.073 0.193 -0.167 0.281 -0.266 0 0 -0.045 -0.336 -0.116 -0.574 -0.028 0.159 -0.143 0.259 -0.311 0.409" fill="#a86d44"/></g><g><radialGradient id="IconifyId17ecdb2904d178eab7492" cx="77.121" cy="66.694" r="76.184" gradientTransform="rotate(-3.714 -608.323 2.714)" gradientUnits="userSpaceOnUse"><stop offset=".104" stop-color="#ce93d8"/><stop offset="1" stop-color="#ab47bc"/></radialGradient><path cx="64" cy="52.76" r="48.76" fill="url(#IconifyId17ecdb2904d178eab7492)" d="M21.143 9.893A9.143 9.143 0 0 1 12 19.035 9.143 9.143 0 0 1 2.857 9.893a9.143 9.143 0 0 1 18.285 0"/><radialGradient id="IconifyId17ecdb2904d178eab7493" cx="53.349" cy="46.135" r="69.389" gradientUnits="userSpaceOnUse"><stop offset=".28" stop-color="#81d4fa" stop-opacity="0"/><stop offset=".964" stop-color="#81d4fa" stop-opacity=".9"/></radialGradient><path cx="64" cy="52.76" r="48.76" fill="url(#IconifyId17ecdb2904d178eab7493)" d="M21.143 9.893A9.143 9.143 0 0 1 12 19.035 9.143 9.143 0 0 1 2.857 9.893a9.143 9.143 0 0 1 18.285 0"/><path id="IconifyId17ecdb2904d178eab7494" gradientUnits="userSpaceOnUse" x1="74.69" y1="10.651" x2="35.942" y2="111.007" d=""><stop offset="0" stop-color="#673ab7"/><stop offset=".937" stop-color="#673ab7" stop-opacity="0"/></path><path d="M8.608 4.194c0.851 0.073 2.595 0.711 1.326 2.346 -0.834 1.074 -1.877 2.074 -2.246 2.938 -1.067 2.499 1.607 3.519 2.438 3.78 0.72 0.227 2.107 0.733 2.498 1.38 1.506 2.494 -3.073 3.174 -3.073 3.174s3.369 1.228 6.144 -0.649c1.05 -0.711 1.974 -2.364 1.071 -3.853 -0.439 -0.722 -1.648 -1.373 -1.944 -1.605 -1.268 -1.001 -2.049 -2.036 -1.419 -3.197 0.255 -0.469 0.788 -0.712 1.303 -0.855 1.444 -0.399 3.246 -0.328 3.716 -2.111C18.827 4.005 15.857 0.57 11.25 1.129c-1.912 0.231 -3.634 1.031 -5.042 2.348 -2.599 2.432 -2.374 4.444 -2.374 4.444s1.693 -3.994 4.774 -3.726" opacity=".7" fill="url(#IconifyId17ecdb2904d178eab7494)"/><path id="IconifyId17ecdb2904d178eab7495" gradientUnits="userSpaceOnUse" x1="80.878" y1="24.934" x2="80.878" y2="108.077" d=""><stop offset=".235" stop-color="#1d44b3"/><stop offset=".884" stop-color="#2044b3" stop-opacity=".074"/><stop offset=".936" stop-color="#2144b3" stop-opacity="0"/></path><path d="M18.707 4.541c-0.652 -0.949 -1.554 -1.703 -2.505 -2.353 -1.517 -1.037 -3.478 -1.121 -3.478 -1.121 2.407 1.151 2.138 2.677 1.352 3.769 -0.956 1.329 -2.874 2.228 -3.375 3.846 -0.292 0.945 -0.112 1.939 0.808 2.542s4.234 2.207 4.348 4.104c0.086 1.429 -1.05 2.329 -1.05 2.329C16.136 17.37 18.934 15.413 18.105 13.399c-0.401 -0.975 -2.226 -1.622 -1.307 -2.734 0.341 -0.414 2.724 -0.636 2.948 -3.047 0.103 -1.127 -0.504 -2.301 -1.039 -3.077" opacity=".39" fill="url(#IconifyId17ecdb2904d178eab7495)"/><path id="IconifyId17ecdb2904d178eab7496" gradientUnits="userSpaceOnUse" x1="-2575.355" y1="437.519" x2="-2575.355" y2="471.206" gradientTransform="rotate(164.983 -1301.143 -38.63)scale(1 -1)" d=""><stop offset=".227" stop-color="#ffffff"/><stop offset="1" stop-color="#ffffff" stop-opacity="0"/></path><path d="M4.633 11.561s-1.369 -3.63 1.442 -6.992c2.316 -2.771 4.406 -1.65 4.084 -0.469 -0.324 1.181 -1.331 1.545 -2.848 2.732 -2.004 1.567 -2.677 4.729 -2.677 4.729" opacity=".85" fill="url(#IconifyId17ecdb2904d178eab7496)"/><g><path id="IconifyId17ecdb2904d178eab7497" gradientUnits="userSpaceOnUse" x1="85.871" y1="28.96" x2="85.871" y2="52.387" d=""><stop offset=".261" stop-color="#ffffff"/><stop offset="1" stop-color="#ffffff" stop-opacity="0"/></path><path d="M17.43 6.519c-0.366 -0.182 -0.658 -0.411 -0.786 -0.799L16.102 3.926l-0.542 1.794c-0.128 0.386 -0.422 0.617 -0.786 0.799l-0.906 0.392 0.932 0.386c0.366 0.182 0.632 0.431 0.761 0.818l0.542 1.779 0.542 -1.779c0.128 -0.386 0.396 -0.636 0.761 -0.818l0.932 -0.386z" fill="url(#IconifyId17ecdb2904d178eab7497)"/><path id="IconifyId17ecdb2904d178eab7498" gradientUnits="userSpaceOnUse" x1="76.221" y1="58.161" x2="76.221" y2="85.231" d=""><stop offset="0" stop-color="#ffffff"/><stop offset="1" stop-color="#ffffff" stop-opacity="0"/></path><path d="M15.621 13.007c-0.366 -0.182 -0.658 -0.411 -0.786 -0.799l-0.542 -1.794 -0.542 1.794c-0.128 0.386 -0.422 0.617 -0.786 0.799L12.06 13.399l0.932 0.386c0.366 0.182 0.632 0.431 0.761 0.818l0.542 1.779 0.542 -1.779c0.128 -0.386 0.396 -0.636 0.761 -0.818l0.932 -0.386z" fill="url(#IconifyId17ecdb2904d178eab7498)"/><path d="M19.939 10.119c-0.276 -0.137 -0.497 -0.311 -0.594 -0.602l-0.409 -1.356 -0.409 1.356c-0.098 0.292 -0.319 0.465 -0.594 0.602l-0.682 0.296 0.703 0.292c0.276 0.137 0.478 0.324 0.574 0.617l0.409 1.343 0.409 -1.343c0.098 -0.292 0.298 -0.48 0.574 -0.617l0.703 -0.292z" fill="#ffffff"/></g></g></svg>